#!OML:ASF E:\pregnant2\Project 1\Capture day 1\Session 1\pregnant2.ASF
:FULLY-SPECIFIED
:DEGREES
2064
root 7.44735 16.5473 30.5854 -333.19 8.76312 0.0701252
lowerback -15.4203 2.04164 0.00260283
upperback -14.7582 2.77426 -2.00039
thorax -7.14998 1.35561 -1.89816
lowerneck -13.9353 -2.76635 -4.00064
upperneck 47.7417 -2.42577 -0.319469
head 22.349 -1.60144 0.116339
rclavicle -2.03754e-014 4.01545e-014
rhumerus -37.7277 6.29757 -90.855
rradius 31.9786
rwrist 12.1561
rhand -16.6843 -11.4194
rfingers 7.12502
rthumb 9.53994 -41.1835
lclavicle -2.03754e-014 4.01545e-014
lhumerus -50.4322 4.10792 79.1665
lradius 29.8483
lwrist -6.00092
lhand -8.18349 24.4353
lfingers 7.12502
lthumb 17.7323 53.6468
rfemur -34.3228 -1.27864 23.2277
rtibia 51.8334
rfoot -16.3368 -6.3815
rtoes -18.4893
lfemur -52.9535 -9.13348 -23.1464
ltibia 29.9951
lfoot 1.45825 21.525
ltoes 2.90722
2065
root 7.48817 16.5541 30.6808 -333.31 9.03815 0.154604
lowerback -15.3857 2.08657 0.0740529
upperback -14.6596 2.83055 -1.9946
thorax -7.04973 1.38007 -1.92396
lowerneck -13.9487 -2.72088 -3.99335
upperneck 47.6722 -2.27502 -0.444556
head 22.2831 -1.55479 0.0826898
rclavicle 4.85532e-014 -3.18055e-015
rhumerus -37.888 5.80223 -90.5247
rradius 31.559
rwrist 12.4489
rhand -16.5494 -11.3303
rfingers 7.12502
rthumb 9.67007 -41.0883
lclavicle 4.85532e-014 -3.18055e-015
lhumerus -50.1535 3.94271 79.4039
lradius 30.0809
lwrist -5.71177
lhand -8.31555 24.4729
lfingers 7.12502
lthumb 17.6052 53.6958
rfemur -35.0069 -2.00128 23.0782
rtibia 53.6698
rfoot -14.4025 -5.49927
rtoes -17.7348
lfemur -52.4681 -9.10465 -23.5674
ltibia 30.1577
lfoot 1.00843 21.1871
ltoes 2.29396
2066
root 7.52797 16.5591 30.7738 -333.391 9.30306 0.23331
lowerback -15.3675 2.13252 0.139049
upperback -14.605 2.88914 -1.98439
thorax -6.99203 1.40638 -1.94243
lowerneck -13.9038 -2.64301 -3.91903
upperneck 47.6419 -2.0609 -0.641776
head 22.2243 -1.48064 0.0116496
rclavicle -2.68359e-014 -1.63003e-014
rhumerus -38.0435 5.38817 -90.2024
rradius 31.0905
rwrist 12.7388
rhand -16.337 -11.1467
rfingers 7.12502
rthumb 9.87506 -40.8951
lclavicle -2.68359e-014 -1.63003e-014
lhumerus -50.0007 3.61958 79.748
lradius 30.4783
lwrist -5.27885
lhand -8.43991 24.7128
lfingers 7.12502
lthumb 17.4855 53.9464
rfemur -35.7845 -2.6156 22.9039
rtibia 55.4639
rfoot -12.2423 -4.72479
rtoes -16.5289
lfemur -52.0358 -9.00898 -23.9909
ltibia 30.2978
lfoot 0.439615 20.8451
ltoes 2.2898
2067
root 7.56805 16.5659 30.8658 -333.451 9.57441 0.327263
lowerback -15.3303 2.18164 0.195534
upperback -14.5819 2.95266 -1.98468
thorax -6.98038 1.43513 -1.96906
lowerneck -13.8745 -2.56452 -3.84448
upperneck 47.6708 -1.8522 -0.819932
head 22.2265 -1.40561 -0.0512158
rclavicle -3.37934e-014 -1.59028e-014
rhumerus -38.2411 4.93776 -89.8561
rradius 30.6222
rwrist 13.1713
rhand -16.1082 -10.8932
rfingers 7.12502
rthumb 10.0958 -40.631
lclavicle -3.37934e-014 -1.59028e-014
lhumerus -49.8532 3.31977 80.066
lradius 30.8453
lwrist -4.92703
lhand -8.61097 24.7574
lfingers 7.12502
lthumb 17.3209 54.0055
rfemur -36.5745 -3.17268 22.6894
rtibia 57.1298
rfoot -9.66113 -4.02616
rtoes -16.1787
lfemur -51.5589 -8.9537 -24.3902
ltibia 30.3136
lfoot 0.00656449 20.4467
ltoes 2.03896
2068
root 7.60568 16.5687 30.9566 -333.45 9.91147 0.421136
lowerback -15.4228 2.19093 0.231139
upperback -14.5228 2.9666 -1.9606
thorax -6.86236 1.44312 -1.95557
lowerneck -13.9094 -2.47161 -3.75858
upperneck 47.7132 -1.61416 -1.01039
head 22.2662 -1.31905 -0.117963
rclavicle -5.2181e-015 1.39149e-015
rhumerus -38.308 4.58748 -89.5096
rradius 30.1751
rwrist 13.5974
rhand -15.7869 -10.7048
rfingers 7.12502
rthumb 10.4058 -40.4273
lclavicle -5.2181e-015 1.39149e-015
lhumerus -49.7015 2.91317 80.4901
lradius 31.355
lwrist -4.42035
lhand -8.81948 24.9015
lfingers 7.12502
lthumb 17.1202 54.1672
rfemur -37.4428 -3.72158 22.4917
rtibia 58.6773
rfoot -7.25269 -3.37397
rtoes -13.8628
lfemur -51.1596 -8.89481 -24.7808
ltibia 30.3376
lfoot -0.355081 19.9311
ltoes 1.3781
2069
root 7.63812 16.5883 31.0584 -333.86 10.5636 0.733473
lowerback -15.1703 2.03794 0.0406429
upperback -14.3217 2.78571 -1.94133
thorax -6.78094 1.37061 -1.84801
lowerneck -13.965 -2.38998 -3.6418
upperneck 47.767 -1.40675 -1.19945
head 22.3256 -1.23791 -0.197444
rclavicle -1.11816e-014 1.70955e-014
rhumerus -38.3618 4.29942 -89.2115
rradius 29.7475
rwrist 13.8885
rhand -15.5845 -10.5142
rfingers 7.12502
rthumb 10.6009 -40.2269
lclavicle -1.11816e-014 1.70955e-014
lhumerus -49.501 2.55106 80.8248
lradius 31.9005
lwrist -4.20341
lhand -8.37374 25.6526
lfingers 7.12502
lthumb 17.5492 54.8805
rfemur -37.6306 -4.4676 22.18
rtibia 60.0681
rfoot -4.81487 -2.82315
rtoes -11.6999
lfemur -50.1524 -9.08903 -25.3062
ltibia 30.3099
lfoot -0.863318 19.4011
ltoes 0.950552
2070
root 7.68136 16.6013 31.168 -334.555 10.5616 0.727146
lowerback -14.8309 2.18476 0.124846
upperback -14.0739 2.97092 -1.92152
thorax -6.66909 1.45809 -1.86069
lowerneck -13.9828 -2.29923 -3.5078
upperneck 47.8575 -1.19321 -1.38227
head 22.4049 -1.1501 -0.275806
rclavicle -1.58531e-014 8.54774e-015
rhumerus -38.5006 4.05981 -88.9563
rradius 29.3737
rwrist 14.1817
rhand -15.3492 -10.3773
rfingers 7.12502
rthumb 10.8279 -40.0782
lclavicle -1.58531e-014 8.54774e-015
lhumerus -49.3936 2.01998 81.2556
lradius 32.4765
lwrist -3.73084
lhand -8.36143 25.493
lfingers 7.12502
lthumb 17.561 54.7199
rfemur -37.6223 -4.64875 21.8261
rtibia 61.3704
rfoot -2.40668 -2.00743
rtoes -9.1941
lfemur -48.8867 -8.73128 -25.7728
ltibia 30.3316
lfoot -1.54346 19.1281
ltoes 0.785677
2071
root 7.71346 16.6036 31.2514 -334.398 10.8942 0.83012
lowerback -14.9431 2.17898 0.0753579
upperback -14.1259 2.97383 -1.89948
thorax -6.67229 1.46711 -1.8071
lowerneck -13.9708 -2.20077 -3.38593
upperneck 47.9847 -0.974736 -1.5362
head 22.509 -1.05861 -0.335496
rclavicle 2.41026e-014 -8.54774e-015
rhumerus -38.6421 3.83752 -88.6859
rradius 29.0198
rwrist 14.5262
rhand -15.1519 -10.1905
rfingers 7.12502
rthumb 11.0183 -39.8813
lclavicle 2.41026e-014 -8.54774e-015
lhumerus -49.3838 1.507 81.6939
lradius 33.1593
lwrist -3.20364
lhand -8.64258 25.1914
lfingers 7.12502
lthumb 17.2905 54.4423
rfemur -38.6502 -4.95706 21.6003
rtibia 62.7024
rfoot -0.578109 -1.43946
rtoes -7.78332
lfemur -48.6755 -8.71997 -26.0714
ltibia 30.3184
lfoot -1.88593 18.7041
ltoes 0.501765
2072
root 7.74135 16.6032 31.3386 -334.375 11.3218 0.929674
lowerback -15.0173 2.16527 0.00672344
upperback -14.1166 2.96817 -1.87967
thorax -6.62663 1.47371 -1.74505
lowerneck -13.9588 -2.12052 -3.28107
upperneck 48.1255 -0.790225 -1.66139
head 22.6292 -0.978559 -0.384054
rclavicle -9.29318e-015 -1.78906e-014
rhumerus -38.8394 3.57412 -88.4059
rradius 28.7716
rwrist 14.8913
rhand -15.0827 -10.0901
rfingers 7.12502
rthumb 11.085 -39.7774
lclavicle -9.29318e-015 -1.78906e-014
lhumerus -49.2873 0.990715 82.082
lradius 33.794
lwrist -2.9535
lhand -8.56297 25.1287
lfingers 7.12502
lthumb 17.3671 54.3728
rfemur -39.4604 -5.23705 21.4231
rtibia 64.0052
rfoot -0.455786 -1.46156
rtoes -9.75623
lfemur -48.3659 -8.69954 -26.3756
ltibia 30.4139
lfoot -2.2759 18.2493
ltoes -0.0123273
